<svg width="306" height="264" viewBox="0 0 306 264" fill="none" xmlns="http://www.w3.org/2000/svg">
<path d="M139.667 229.081C206.309 229.081 260.334 177.8 260.334 114.541C260.334 51.2816 206.309 0 139.667 0C73.0244 0 19 51.2816 19 114.541C19 177.8 73.0244 229.081 139.667 229.081Z" fill="#EBF5FF"/>
<path fill-rule="evenodd" clip-rule="evenodd" d="M198.04 64.7812L198.22 64.8012L198.2 64.9812L198.01 64.9612L198.04 64.7812Z" fill="#2991FF"/>
<path fill-rule="evenodd" clip-rule="evenodd" d="M196.86 64.9609L197.03 65.0209L196.96 65.1909L196.79 65.1209L196.86 64.9609Z" fill="#2991FF"/>
<path fill-rule="evenodd" clip-rule="evenodd" d="M41.9397 99.7305C38.4697 99.7305 35.6497 102.55 35.6497 106.02V239.84C35.6497 243.31 38.4597 246.13 41.9397 246.13H262.75C266.22 246.13 269.04 243.31 269.04 239.84V106.02C269.04 102.55 266.22 99.7305 262.75 99.7305H41.9397Z" fill="#037DFF"/>
<path fill-rule="evenodd" clip-rule="evenodd" d="M44.0999 239.669H260.6V106.199H44.0999V239.669Z" fill="#57A9FF"/>
<path fill-rule="evenodd" clip-rule="evenodd" d="M288.25 247.379H12.2898V252.379C12.2898 258.309 18.1598 263.109 25.3998 263.109H275.16C282.4 263.109 288.26 258.309 288.26 252.379V247.379H288.25Z" fill="#007CFF"/>
<path fill-rule="evenodd" clip-rule="evenodd" d="M178.32 255.469H126.38C122.31 255.469 119.02 252.169 119.02 248.099V247.699H185.69V248.099C185.68 252.169 182.39 255.469 178.32 255.469Z" fill="#57A9FF"/>
<path fill-rule="evenodd" clip-rule="evenodd" d="M188.75 239.76C185.21 214.08 180.76 158.84 180.76 158.84L145.9 136.23H130.84L110.9 150.49C110.9 150.49 107.18 216.62 104.71 239.76H188.75Z" fill="#FFFFFE"/>
<path fill-rule="evenodd" clip-rule="evenodd" d="M149.96 191.261L180.08 155.571L145.22 132.961L134.5 150.491L138.07 165.921L147.38 191.831L149.96 191.261Z" fill="#57A9FF"/>
<path fill-rule="evenodd" clip-rule="evenodd" d="M159.6 59.141C159.6 59.141 156.56 51.421 160.32 48.791C164.08 46.161 176.15 42.171 183.53 56.791C190.91 71.411 176.21 75.231 173.13 73.071C170.05 70.921 159.6 59.141 159.6 59.141Z" fill="#037DFF"/>
<path fill-rule="evenodd" clip-rule="evenodd" d="M214.28 239.76C213.37 229.98 212.35 220.16 211.61 216.63C209.95 208.74 213.11 192.54 209.17 178.83C205.23 165.13 198.21 152.63 192.15 149.33C185.72 145.83 162.5 136.23 162.5 136.23L159.88 142.46L140.69 239.76H214.28Z" fill="#FFFFFE"/>
<path fill-rule="evenodd" clip-rule="evenodd" d="M149.96 165.14C160.13 165.09 161.18 140.84 162.49 136.24C159.73 135.52 154.86 134.15 154.86 134.15L154.75 110.18L139.12 110.25L139.22 131.9C139.22 131.9 134.58 134.91 132.02 135.68C132.02 135.68 131.16 136.06 130.83 136.23C131.64 140.33 138.96 165.19 149.96 165.14Z" fill="#B9DBFF"/>
<path fill-rule="evenodd" clip-rule="evenodd" d="M132.82 135.389C133.08 135.289 133.36 135.169 133.64 135.039C133.36 135.159 133.08 135.279 132.82 135.389Z" fill="#47A1FF"/>
<path fill-rule="evenodd" clip-rule="evenodd" d="M149.93 165.139C143.65 165.139 138.57 157.019 135.22 149.309C138.57 157.019 143.65 165.129 149.93 165.139C149.94 165.139 149.95 165.139 149.96 165.139H149.97H149.96C149.95 165.139 149.94 165.139 149.93 165.139Z" fill="#2690FF"/>
<path fill-rule="evenodd" clip-rule="evenodd" d="M149.93 165.141C143.65 165.141 138.57 157.021 135.22 149.311C132.71 143.531 131.18 137.991 130.83 136.231C131.16 136.061 132.02 135.681 132.02 135.681H132.03C132.03 135.681 132.03 135.681 132.04 135.681C132.29 135.611 132.55 135.511 132.83 135.401C133.09 135.301 133.37 135.181 133.65 135.051C136.05 143.141 142.65 160.461 151.83 160.461C151.84 160.461 151.85 160.461 151.86 160.461C154.92 160.451 157.15 158.231 158.81 155.031C157.07 160.551 154.39 165.101 150.02 165.151H150.01H150H149.99H149.98C149.95 165.141 149.94 165.141 149.93 165.141Z" fill="#B9DBFF"/>
<path fill-rule="evenodd" clip-rule="evenodd" d="M151.25 133.552C146.22 133.552 142.19 132.072 139.21 130.372L139.2 129.172C141.82 129.732 144.78 130.022 148.11 130.022C148.12 130.022 148.12 130.022 148.13 130.022C150.53 130.022 152.76 129.782 154.83 129.322L154.85 133.302C153.6 133.472 152.4 133.552 151.25 133.552Z" fill="#B9DBFF"/>
<path fill-rule="evenodd" clip-rule="evenodd" d="M173.87 93.581C173.87 93.581 180.85 92.891 182.4 99.171C183.98 105.601 173.47 107.071 173.47 107.071L173.87 93.581Z" fill="#B9DBFF"/>
<path fill-rule="evenodd" clip-rule="evenodd" d="M180.76 100.85C180.76 100.85 178.25 99.32 175.65 99.32C175.41 99.32 175.17 99.33 174.94 99.36C174.92 98.24 174.86 97.12 174.76 96C176.68 96.2 179.57 97.15 180.76 100.85Z" fill="#B9DBFF"/>
<path fill-rule="evenodd" clip-rule="evenodd" d="M120.53 98.0898C120.53 98.0898 113.53 98.5798 113.06 105.03C112.58 111.63 123.19 111.32 123.19 111.32L120.53 98.0898Z" fill="#B9DBFF"/>
<path fill-rule="evenodd" clip-rule="evenodd" d="M114.96 106.409C115.57 102.099 118.88 100.839 120.71 100.469C120.74 101.669 120.8 102.829 120.88 103.959C120.83 103.959 120.79 103.959 120.74 103.959C117.79 103.959 114.96 106.409 114.96 106.409Z" fill="#B9DBFF"/>
<path fill-rule="evenodd" clip-rule="evenodd" d="M155.57 63.3205C155.57 63.3205 165.51 67.2705 171.97 84.0705C179.47 103.571 173.12 130.041 148.11 130.021C122.9 130.001 119.15 113.561 121.12 87.0305C122.36 70.3005 130.81 68.9805 135.31 65.9405C140.86 62.1905 145.53 62.6705 149.67 63.1405C151.77 63.3805 153.71 63.6205 155.57 63.3205Z" fill="#B9DBFF"/>
<path fill-rule="evenodd" clip-rule="evenodd" d="M135.5 65.8203C139.12 63.4303 142.36 62.8203 145.33 62.8203C142.36 62.8303 139.11 63.4303 135.5 65.8203ZM153.69 63.4603C154.33 63.4603 154.96 63.4203 155.58 63.3203C154.96 63.4203 154.33 63.4603 153.69 63.4603ZM149.93 63.1703C149.85 63.1603 149.77 63.1503 149.68 63.1403C149.77 63.1503 149.85 63.1603 149.93 63.1703Z" fill="#B1D7FF"/>
<path fill-rule="evenodd" clip-rule="evenodd" d="M120.77 101.71C120.58 97.2898 120.73 92.4298 121.12 87.1598C121.12 87.1398 121.12 87.1198 121.12 87.1098C121.12 87.0998 121.12 87.0998 121.12 87.0998C121.12 87.0798 121.12 87.0598 121.12 87.0498C122.36 70.3198 130.81 68.9998 135.31 65.9598C135.36 65.9298 135.41 65.8898 135.45 65.8598C135.46 65.8598 135.46 65.8498 135.47 65.8498L135.48 65.8398C139.1 63.4498 142.34 62.8398 145.31 62.8398C146.74 62.8398 148.1 62.9798 149.41 63.1298C149.42 63.1298 149.44 63.1298 149.45 63.1398C149.48 63.1398 149.5 63.1498 149.53 63.1498C149.53 63.1498 149.53 63.1498 149.54 63.1498C149.56 63.1498 149.57 63.1498 149.59 63.1598C149.6 63.1598 149.6 63.1598 149.61 63.1598C149.63 63.1598 149.64 63.1598 149.66 63.1698C149.74 63.1798 149.83 63.1898 149.91 63.1998C149.92 63.1998 149.93 63.1998 149.95 63.1998C149.96 63.1998 149.96 63.1998 149.97 63.1998C151.25 63.3498 152.48 63.4798 153.67 63.4798C154.31 63.4798 154.94 63.4398 155.56 63.3398C155.56 63.3398 165.5 67.2898 171.96 84.0898C173.09 87.0298 173.9 90.1298 174.39 93.2798C172.57 91.3998 170.04 88.6298 168.43 86.2298C165.36 81.6398 164.06 77.1398 163.55 73.5398C160.76 73.7198 158 74.4198 156.89 76.3198C154.28 80.7698 152.44 92.2898 142.09 92.2898C135.05 92.2698 126.63 98.0398 120.77 101.71Z" fill="#B9DBFF"/>
<path fill-rule="evenodd" clip-rule="evenodd" d="M155.67 117.969L139.08 117.879C139.08 117.879 141.13 123.989 148.02 124.099C154.58 124.189 155.67 117.969 155.67 117.969Z" fill="#FEFFFE"/>
<path fill-rule="evenodd" clip-rule="evenodd" d="M161.38 64.0414C161.38 64.0414 159.37 73.9614 166.26 84.2714C169.01 88.3714 174.45 93.5514 174.45 93.5514C174.45 93.5514 177.43 91.5214 178.01 83.9814C178.59 76.4314 174.37 78.1014 175.4 71.3514C176.87 61.8114 165.93 56.3514 161.38 64.0414Z" fill="#037DFF"/>
<path fill-rule="evenodd" clip-rule="evenodd" d="M168.89 72.0415C168.89 72.0415 157.34 69.9115 154.72 74.3615C152.11 78.8115 150.27 90.3315 139.92 90.3315C129.57 90.3315 116.25 102.771 112.45 102.771C112.45 102.771 113.71 97.6015 113.13 93.4315C112.49 88.8615 109.31 83.3015 111.87 77.6515C116.78 66.8615 125.09 67.5615 126.11 64.2015C128.73 55.5715 136.34 48.3315 150.14 52.2915C163.94 56.2715 168.89 72.0415 168.89 72.0415Z" fill="#037DFF"/>
<path fill-rule="evenodd" clip-rule="evenodd" d="M159.87 57.7188C159.87 57.7188 169.24 62.1088 174.57 72.6788C174.57 72.6788 164.8 62.6588 159.87 57.7188Z" fill="#57A9FF"/>
<path fill-rule="evenodd" clip-rule="evenodd" d="M172.3 184.918C172.3 184.918 171.16 165.178 172.59 165.118C174.02 165.058 173.69 171.108 173.69 171.108C173.69 171.108 175.39 159.268 176.46 158.938C177.54 158.598 175.85 168.988 175.85 168.988C175.85 168.988 180.3 162.268 181.02 162.238C181.75 162.198 172.3 184.918 172.3 184.918Z" fill="#E5F2FF"/>
<path fill-rule="evenodd" clip-rule="evenodd" d="M160.82 189.201C160.82 189.201 164.49 187.141 165.94 185.231C167.4 183.321 167.39 179.381 171.62 175.571C175.85 171.771 180.27 169.551 181.58 168.011C182.89 166.461 185.87 162.301 187.07 163.001C188.27 163.711 190.38 166.161 188.12 168.921C185.87 171.681 182.88 174.661 182.48 175.661C182.08 176.661 185.32 175.841 190.57 175.331C195.82 174.821 200.96 174.481 203.01 173.931C205.06 173.381 210.15 172.661 211.4 174.271C212.65 175.871 211.34 176.461 210.33 176.721L209.46 177.001C209.46 177.001 209.84 177.331 209.31 177.751C209.31 177.751 210.24 178.391 209.12 179.271C208 180.151 203.3 181.511 201.21 183.131C199.13 184.761 197.97 185.101 192.36 187.661C186.75 190.211 188.63 190.791 184.32 192.111C180.01 193.431 169.98 198.471 166.33 204.131L160.82 189.201Z" fill="#B9DBFF"/>
<path fill-rule="evenodd" clip-rule="evenodd" d="M149.96 191.259L160.63 135.719C160.63 135.719 165.51 137.229 167.01 137.699C169.82 138.589 176.82 141.329 176.82 141.329C176.08 142.889 163.43 142.269 164.81 143.649C166.19 145.029 174.93 148.759 174.93 150.489C174.93 152.209 149.96 191.259 149.96 191.259Z" fill="#E8F3FF"/>
<path fill-rule="evenodd" clip-rule="evenodd" d="M166.35 204.1L161.95 192.22L166.35 204.1C170.01 198.45 180.03 193.4 184.34 192.08C188.65 190.76 186.77 190.18 192.38 187.63C195.51 186.2 197.25 185.47 198.54 184.81C197.25 185.47 195.5 186.2 192.38 187.63C186.77 190.18 188.65 190.76 184.34 192.08C180.03 193.41 170.01 198.45 166.35 204.1ZM201.32 183.04C201.6 182.83 201.93 182.62 202.28 182.42C202.29 182.41 202.3 182.41 202.31 182.41C201.97 182.61 201.65 182.81 201.38 183.01L201.32 183.04Z" fill="#CBE4FF"/>
<path fill-rule="evenodd" clip-rule="evenodd" d="M166.35 204.112L161.95 192.232C162.22 190.912 162.67 190.012 163.4 189.882C163.4 189.882 166.9 196.112 169.51 196.112C172.12 196.112 178.81 190.912 183.45 189.882C187.96 188.882 201.56 182.762 202.29 182.422C201.93 182.622 201.61 182.832 201.33 183.042L198.56 184.812C197.27 185.472 195.52 186.202 192.4 187.632C186.79 190.182 188.67 190.762 184.36 192.082C180.03 193.412 170.01 198.452 166.35 204.112Z" fill="#A8D2FF"/>
<path fill-rule="evenodd" clip-rule="evenodd" d="M130.83 136.219C130.83 136.219 120.6 140.939 111.17 144.539C101.74 148.149 95.6697 158.409 93.3397 167.159C91.0097 175.909 94.7097 208.789 94.2597 212.499C93.7997 216.209 98.3997 227.339 104.73 232.819C111.06 238.309 173.11 219.249 173.11 219.249L162.74 187.849C162.74 187.849 134.7 198.839 132.5 198.569C130.3 198.299 120.86 176.429 122.45 163.439C124.04 150.449 130.83 136.219 130.83 136.219Z" fill="#FFFFFE"/>
<path fill-rule="evenodd" clip-rule="evenodd" d="M163.12 187.31L137 196.72C137 196.72 134.25 197.41 126.86 194.23C119.47 191.04 119.79 188.27 124.97 190.67C130.15 193.07 130.75 193.63 130.75 193.63C130.75 193.63 115.27 180.75 117.21 178.64C119.16 176.53 129.4 189.04 129.4 189.04C129.4 189.04 121.81 173.95 124.81 172.52C127.8 171.09 132.05 193.01 133.56 194.39C135.05 195.78 161.54 188.43 163.12 187.31Z" fill="#E8F3FF"/>
<path fill-rule="evenodd" clip-rule="evenodd" d="M147.38 191.82L135.17 134.27C135.17 134.27 119.91 139.85 118.44 140.83C116.41 142.19 128.22 149.26 128.22 149.26L121.92 155.61L147.38 191.82Z" fill="#E8F3FF"/>
<path fill-rule="evenodd" clip-rule="evenodd" d="M186.99 168.889C186.65 168.889 183.82 166.629 183.82 166.629C183.82 166.629 185.05 163.849 186.77 163.219C186.77 163.219 186.77 163.219 186.78 163.219C186.95 163.219 189.32 164.789 188.39 167.239C188.39 167.239 187.18 168.719 187.01 168.889C187.01 168.889 187 168.889 186.99 168.889Z" fill="#CCE5FF"/>
<path fill-rule="evenodd" clip-rule="evenodd" d="M208.42 176.65C208.42 176.65 207.97 175.4 208.2 175.17C208.38 174.99 210 174.66 210.89 174.66C211.12 174.66 211.3 174.68 211.4 174.73C211.89 174.97 211.51 175.9 211.51 175.9L208.42 176.65Z" fill="#CCE5FF"/>
<path fill-rule="evenodd" clip-rule="evenodd" d="M170.27 172.798C170.27 176.128 167.57 178.838 164.24 178.838C160.91 178.838 158.21 176.138 158.21 172.798C158.21 169.468 160.91 166.758 164.24 166.758C167.57 166.758 170.27 169.458 170.27 172.798Z" fill="#037DFF"/>
<path fill-rule="evenodd" clip-rule="evenodd" d="M167.13 172.798C167.13 174.398 165.83 175.698 164.23 175.698C162.63 175.698 161.33 174.398 161.33 172.798C161.33 171.198 162.63 169.898 164.23 169.898C165.84 169.898 167.13 171.198 167.13 172.798Z" fill="#D3E8FF"/>
<path fill-rule="evenodd" clip-rule="evenodd" d="M121.85 180.88C121.21 180.88 120.73 180.76 120.35 180.58C119.78 180.32 119.42 179.93 119.2 179.59C119.09 179.42 119.01 179.28 118.97 179.17L118.93 179.06L118.92 179.04L118.69 179.12L118.92 179.05V179.04L118.69 179.12L118.92 179.05L118.13 179.29L118.95 179.19C118.95 179.19 118.94 179.12 118.93 178.99C118.82 178.04 118.4 173.88 118.4 168.86C118.4 164.38 118.75 159.2 119.93 155.05C120.52 152.97 121.32 151.16 122.35 149.82C123.38 148.48 124.6 147.61 126.14 147.28C126.28 147.25 126.4 147.24 126.53 147.24C127.09 147.24 127.69 147.5 128.36 148.09C129.52 149.11 130.71 151.09 131.74 153.46C133.3 157.02 134.56 161.46 135.43 164.99C135.86 166.76 136.2 168.3 136.42 169.4C136.53 169.95 136.62 170.39 136.68 170.69C136.74 170.99 136.77 171.15 136.77 171.15L136.78 171.19L136.79 171.23L137.25 171.1L136.78 171.21V171.22L137.24 171.09L136.77 171.2V171.22C136.78 171.26 136.79 171.37 136.79 171.52C136.79 171.84 136.72 172.34 136.36 172.93C136 173.52 135.33 174.21 134.02 174.87L134.76 176.35C136.29 175.59 137.23 174.68 137.78 173.8C138.32 172.92 138.45 172.08 138.45 171.53C138.45 171.11 138.38 170.84 138.37 170.78L137.57 171L138.39 170.85C138.39 170.83 137.28 164.66 135.33 158.46C134.35 155.35 133.17 152.24 131.77 149.84C131.07 148.64 130.31 147.62 129.46 146.85C128.61 146.09 127.63 145.59 126.53 145.59C126.29 145.59 126.04 145.62 125.8 145.67C123.82 146.08 122.24 147.25 121.04 148.82C119.23 151.19 118.19 154.49 117.57 158.05C116.95 161.61 116.75 165.44 116.75 168.87C116.75 174.72 117.32 179.38 117.32 179.4L117.33 179.47L117.35 179.54C117.37 179.61 117.59 180.33 118.27 181.08C118.61 181.45 119.07 181.83 119.67 182.11C120.27 182.39 121.01 182.57 121.87 182.57V180.88H121.85Z" fill="#037DFF"/>
<path fill-rule="evenodd" clip-rule="evenodd" d="M125.72 181.23C125.72 182.69 124.54 183.87 123.08 183.87C121.62 183.87 120.44 182.69 120.44 181.23C120.44 179.77 121.62 178.59 123.08 178.59C124.54 178.59 125.72 179.77 125.72 181.23Z" fill="#037DFF"/>
<path fill-rule="evenodd" clip-rule="evenodd" d="M136.43 175.941C136.43 177.401 135.25 178.581 133.79 178.581C132.33 178.581 131.15 177.401 131.15 175.941C131.15 174.481 132.33 173.301 133.79 173.301C135.25 173.301 136.43 174.481 136.43 175.941Z" fill="#037DFF"/>
<path fill-rule="evenodd" clip-rule="evenodd" d="M126.79 146.439V146.409V146.289C126.79 145.499 126.9 141.779 128.52 138.279C129.33 136.529 130.51 134.839 132.22 133.549C133.93 132.259 136.19 131.349 139.26 131.189L139.18 129.539C135.82 129.709 133.21 130.729 131.23 132.229C128.26 134.469 126.75 137.679 125.98 140.449C125.2 143.229 125.14 145.599 125.14 146.289C125.14 146.409 125.14 146.479 125.14 146.489L126.79 146.439Z" fill="#EEF6EE"/>
<path fill-rule="evenodd" clip-rule="evenodd" d="M154.58 131.148L154.62 131.038L154.58 131.148L154.62 131.038L154.58 131.148C154.63 131.168 156.56 131.848 158.67 133.768C160.79 135.688 163.1 138.808 164 143.798C164.48 146.438 164.65 149.358 164.65 152.198C164.65 155.948 164.34 159.568 164.03 162.238C163.88 163.578 163.72 164.668 163.61 165.438C163.55 165.818 163.51 166.118 163.47 166.318C163.44 166.518 163.42 166.618 163.42 166.618L165.05 166.908C165.05 166.878 166.3 159.888 166.3 152.198C166.3 149.288 166.12 146.288 165.62 143.508C164.64 138.048 162.03 134.538 159.66 132.438C157.29 130.338 155.17 129.608 155.1 129.578L154.58 131.148Z" fill="#037DFF"/>
<path fill-rule="evenodd" clip-rule="evenodd" d="M183.44 239.671C183.44 239.671 183.8 216.481 183.42 212.311C183.03 208.151 183.04 200.961 182.94 200.211C182.56 197.541 180.65 192.251 182.56 194.161C184.47 196.071 184.29 200.021 184.29 202.241C184.29 204.471 189.13 192.621 190.87 192.621C192.61 192.621 185.16 206.181 185.16 208.951C185.16 211.731 187.76 202.991 186.22 211.131C184.68 219.271 184.78 239.741 184.78 239.741L183.44 239.671Z" fill="#E8F3FF"/>
<path fill-rule="evenodd" clip-rule="evenodd" d="M172.26 216.739C154.84 223.009 115.13 230.609 106.04 224.769C101.18 221.649 96.1998 213.109 94.0798 206.699C94.2598 209.609 94.3498 211.719 94.2598 212.509C93.7998 216.219 98.3998 227.349 104.73 232.829C111.06 238.319 173.11 219.259 173.11 219.259L172.26 216.739Z" fill="#E8F3FF"/>
<path fill-rule="evenodd" clip-rule="evenodd" d="M162.06 223.011C162.06 228.381 157.71 232.721 152.35 232.721C146.99 232.721 142.64 228.371 142.64 223.011C142.64 217.651 146.99 213.301 152.35 213.301C157.71 213.301 162.06 217.651 162.06 223.011Z" fill="#75B8FF"/>
<path fill-rule="evenodd" clip-rule="evenodd" d="M155.84 229.311C155.33 229.301 154.88 229.201 154.44 229.061C153.82 228.851 153.23 228.561 152.67 228.231C151.67 227.631 150.77 226.921 149.93 226.121C149.05 225.281 148.25 224.371 147.57 223.371C147.14 222.741 146.77 222.081 146.48 221.381C146.32 220.981 146.19 220.571 146.12 220.151C146.05 219.771 146.03 219.401 146.11 219.021C146.18 218.701 146.32 218.421 146.55 218.191C146.92 217.831 147.29 217.461 147.65 217.091C148.14 216.581 148.95 216.641 149.41 217.091C149.98 217.661 150.55 218.231 151.12 218.801C151.39 219.071 151.52 219.411 151.47 219.791C151.41 220.271 151.15 220.601 150.69 220.761C150.31 220.901 150.06 221.161 149.93 221.541C149.87 221.731 149.87 221.921 149.92 222.121C150.05 222.641 150.31 223.091 150.64 223.511C151.13 224.141 151.71 224.671 152.4 225.071C152.64 225.211 152.89 225.331 153.17 225.401C153.74 225.551 154.39 225.221 154.58 224.641C154.73 224.181 155.08 223.931 155.55 223.871C155.93 223.831 156.25 223.961 156.52 224.221C157.1 224.801 157.68 225.371 158.26 225.961C158.53 226.231 158.63 226.561 158.59 226.931C158.56 227.241 158.43 227.511 158.2 227.731C157.83 228.101 157.46 228.461 157.1 228.831C156.86 229.071 156.57 229.211 156.24 229.281C156.12 229.301 155.96 229.311 155.84 229.311Z" fill="#E8F3FF"/>
<path fill-rule="evenodd" clip-rule="evenodd" d="M51.6896 112.252C51.6896 113.582 50.6097 114.652 49.2896 114.652C47.9596 114.652 46.8896 113.572 46.8896 112.252C46.8896 110.922 47.9696 109.852 49.2896 109.852C50.6097 109.852 51.6896 110.932 51.6896 112.252Z" fill="#E8F3FF"/>
<path fill-rule="evenodd" clip-rule="evenodd" d="M60.6896 112.252C60.6896 113.582 59.6097 114.652 58.2896 114.652C56.9596 114.652 55.8896 113.572 55.8896 112.252C55.8896 110.922 56.9696 109.852 58.2896 109.852C59.6097 109.852 60.6896 110.932 60.6896 112.252Z" fill="#E8F3FF"/>
<path fill-rule="evenodd" clip-rule="evenodd" d="M69.6796 112.252C69.6796 113.582 68.5996 114.652 67.2796 114.652C65.9496 114.652 64.8796 113.572 64.8796 112.252C64.8796 110.922 65.9596 109.852 67.2796 109.852C68.6096 109.852 69.6796 110.932 69.6796 112.252Z" fill="#E8F3FF"/>
<path fill-rule="evenodd" clip-rule="evenodd" d="M101.93 42H45.9297C37.3497 42 30.3997 48.96 30.3997 57.54C30.3997 66.12 37.3597 73.08 45.9397 73.08H91.9597C94.7897 73.08 97.3997 74.57 98.8397 77L99.7597 78.56L99.9297 78.14C101.14 75.09 104.18 73.27 107.26 72.14C113.21 69.96 117.46 64.25 117.46 57.54C117.46 48.96 110.51 42 101.93 42Z" fill="white"/>
<path fill-rule="evenodd" clip-rule="evenodd" d="M56.5599 56.9889C56.5599 62.7089 51.9199 67.3489 46.2099 67.3489C40.4899 67.3489 35.8599 62.7089 35.8599 56.9889C35.8599 51.2689 40.4999 46.6289 46.2099 46.6289C51.9199 46.6289 56.5599 51.2689 56.5599 56.9889Z" fill="#E8F3FF"/>
<path fill-rule="evenodd" clip-rule="evenodd" d="M62.9998 50.3206C62.9998 51.1106 63.6398 51.7506 64.4298 51.7506H106.36C107.15 51.7506 107.79 51.1106 107.79 50.3206C107.79 49.5306 107.15 48.8906 106.36 48.8906H64.4298C63.6398 48.8906 62.9998 49.5306 62.9998 50.3206Z" fill="#E8F3FF"/>
<path fill-rule="evenodd" clip-rule="evenodd" d="M62.9998 60.0081C62.9998 60.7981 63.6398 61.4381 64.4298 61.4381H106.36C107.15 61.4381 107.79 60.7981 107.79 60.0081C107.79 59.2181 107.15 58.5781 106.36 58.5781H64.4298C63.6398 58.5781 62.9998 59.2181 62.9998 60.0081Z" fill="#E8F3FF"/>
<path fill-rule="evenodd" clip-rule="evenodd" d="M62.9998 64.4808C62.9998 65.2708 63.6398 65.9108 64.4298 65.9108H106.36C107.15 65.9108 107.79 65.2708 107.79 64.4808C107.79 63.6908 107.15 63.0508 106.36 63.0508H64.4298C63.6398 63.0608 62.9998 63.6908 62.9998 64.4808Z" fill="#E8F3FF"/>
<path fill-rule="evenodd" clip-rule="evenodd" d="M62.9998 55.5316C62.9998 56.3216 63.6398 56.9616 64.4298 56.9616H86.4298C87.2198 56.9616 87.8598 56.3216 87.8598 55.5316C87.8598 54.7416 87.2198 54.1016 86.4298 54.1016H64.4298C63.6398 54.1116 62.9998 54.7416 62.9998 55.5316Z" fill="#E8F3FF"/>
<path fill-rule="evenodd" clip-rule="evenodd" d="M50.0198 54.8102C50.8498 53.3802 50.3598 51.5502 48.9198 50.7202C47.4898 49.8902 45.6598 50.3802 44.8298 51.8202L42.5498 55.7802L47.7898 58.6702L50.0198 54.8102Z" fill="#82BFFF"/>
<path fill-rule="evenodd" clip-rule="evenodd" d="M42.2497 56.2305L40.5097 59.2405C39.6797 60.6705 40.1697 62.5005 41.6097 63.3305C43.0397 64.1605 44.8697 63.6705 45.6997 62.2305L47.4997 59.1105L42.2497 56.2305Z" fill="#FFFFFE"/>
<path fill-rule="evenodd" clip-rule="evenodd" d="M201 134.541H209.68L212.79 124.661L216.81 146.211L219.3 126.551L222.07 132.861H227.33L229.47 125.211L231.25 144.001L234.67 132.851H246.22V132.021H234.06L231.68 139.771L229.87 120.691L226.7 132.021H222.61L218.86 123.471L216.65 140.861L212.99 121.251L209.07 133.721H201V134.541Z" fill="#FFFFFE"/>
<path fill-rule="evenodd" clip-rule="evenodd" d="M242.94 180.369C253.21 164.759 274.18 160.439 289.78 170.719C305.38 180.989 309.7 201.979 299.43 217.579C289.16 233.189 268.19 237.509 252.59 227.229C236.99 216.959 232.67 195.979 242.94 180.369Z" fill="white"/>
<path fill-rule="evenodd" clip-rule="evenodd" d="M283.87 188.891L280.89 186.781H262.29L259.31 188.891C258.83 189.231 258.55 189.781 258.55 190.371V219.601C258.55 220.601 259.35 221.401 260.33 221.401H282.85C283.83 221.401 284.63 220.591 284.63 219.601V190.371C284.63 189.781 284.34 189.221 283.87 188.891Z" fill="#75B8FF"/>
<path fill-rule="evenodd" clip-rule="evenodd" d="M262.29 186.781H280.89V183.961H262.29V186.781Z" fill="#82BFFF"/>
<path fill-rule="evenodd" clip-rule="evenodd" d="M282.77 185.099H260.41C259.76 185.099 259.22 184.559 259.22 183.899V177.759C259.22 177.099 259.75 176.559 260.41 176.559H282.77C283.43 176.559 283.96 177.099 283.96 177.759V183.899C283.95 184.559 283.42 185.099 282.77 185.099Z" fill="#75B8FF"/>
<path fill-rule="evenodd" clip-rule="evenodd" d="M282.27 204.088C282.27 210.068 277.49 214.918 271.58 214.918C265.68 214.918 260.9 210.068 260.9 204.088C260.9 198.108 265.68 193.258 271.58 193.258C277.49 193.248 282.27 198.098 282.27 204.088Z" fill="#82BFFF"/>
<path fill-rule="evenodd" clip-rule="evenodd" d="M269.68 211.741H273.5V196.441H269.68V211.741Z" fill="#FFFFFE"/>
<path fill-rule="evenodd" clip-rule="evenodd" d="M264.04 206.018H279.14V202.148H264.04V206.018Z" fill="#FFFFFE"/>
<path fill-rule="evenodd" clip-rule="evenodd" d="M260.6 184.189H261.83V177.469H260.6V184.189Z" fill="#82BFFF"/>
<path fill-rule="evenodd" clip-rule="evenodd" d="M263.19 184.189H264.42V177.469H263.19V184.189Z" fill="#82BFFF"/>
<path fill-rule="evenodd" clip-rule="evenodd" d="M265.79 184.189H267.02V177.469H265.79V184.189Z" fill="#82BFFF"/>
<path fill-rule="evenodd" clip-rule="evenodd" d="M268.38 184.189H269.61V177.469H268.38V184.189Z" fill="#82BFFF"/>
<path fill-rule="evenodd" clip-rule="evenodd" d="M270.97 184.189H272.2V177.469H270.97V184.189Z" fill="#82BFFF"/>
<path fill-rule="evenodd" clip-rule="evenodd" d="M273.57 184.189H274.8V177.469H273.57V184.189Z" fill="#82BFFF"/>
<path fill-rule="evenodd" clip-rule="evenodd" d="M276.16 184.189H277.39V177.469H276.16V184.189Z" fill="#82BFFF"/>
<path fill-rule="evenodd" clip-rule="evenodd" d="M278.75 184.189H279.98V177.469H278.75V184.189Z" fill="#82BFFF"/>
<path fill-rule="evenodd" clip-rule="evenodd" d="M281.35 184.189H282.58V177.469H281.35V184.189Z" fill="#82BFFF"/>
<path fill-rule="evenodd" clip-rule="evenodd" d="M4.49986 164.46C12.7999 151.86 29.7299 148.37 42.3299 156.66C54.9299 164.96 58.4199 181.9 50.1199 194.51C41.8299 207.11 24.8899 210.6 12.2899 202.3C-0.300143 194.01 -3.79014 177.06 4.49986 164.46Z" fill="white"/>
<path fill-rule="evenodd" clip-rule="evenodd" d="M39.1597 171.328H15.1297C13.6297 171.328 12.4097 172.548 12.4097 174.048V187.868C12.4097 189.368 13.6297 190.588 15.1297 190.588H39.1597C40.6597 190.588 41.8797 189.368 41.8797 187.868V174.048C41.8797 172.548 40.6597 171.328 39.1597 171.328Z" fill="#82BFFF"/>
<path fill-rule="evenodd" clip-rule="evenodd" d="M25.2998 186.528H28.9898V175.328H25.2998V186.528Z" fill="#FFFFFE"/>
<path fill-rule="evenodd" clip-rule="evenodd" d="M21.5498 182.768H32.7398V179.078H21.5498V182.768Z" fill="#FFFFFE"/>
<path fill-rule="evenodd" clip-rule="evenodd" d="M22.1397 171.251H32.1497V170.161C32.1497 169.411 31.5397 168.801 30.7897 168.801H23.4997C22.7497 168.801 22.1397 169.411 22.1397 170.161V171.251ZM33.0597 172.151H21.2397V170.161C21.2397 168.911 22.2597 167.891 23.5097 167.891H30.7997C32.0497 167.891 33.0697 168.911 33.0697 170.161V172.151H33.0597Z" fill="#75B8FF"/>
</svg>
